# xmcd
#
# Track frame offsets: 
#        150
#        27242
#        48641
#        76494
#        91573
#        116762
#        137360
#        158304
#        179918
#        205641
#        230650
#        253525
#
# Disc length: 3612 seconds
#
# Revision: 0
# Processed by: cddbd v1.5.2PL0 Copyright (c) Steve Scherf et al.
# Submitted via: ExactAudioCopyFreeDBPlugin 1.0
#
DISCID=930e1a0c
DTITLE=Bill Mallonee - Lead On, Kindly Light (Disk 1)
DYEAR=2019
DGENRE=Americana
TTITLE0=The Candle's Always Burning Down (From Both Ends)
TTITLE1=You Old Cow-Puncher
TTITLE2=Broken Arrow
TTITLE3=Rev. Casey
TTITLE4=Fool's Gold Requiem
TTITLE5=El Agua Es La Vida
TTITLE6=The Light Within
TTITLE7=I Still Hear Your Voice
TTITLE8=Boots, Badges and Shootin' Irons
TTITLE9=Albeit of a Different Light
TTITLE10=Lead On, Kindly Light
TTITLE11=(It's Gonna Be) A Long Ride Home
EXTD=
EXTT0=
EXTT1=
EXTT2=
EXTT3=
EXTT4=
EXTT5=
EXTT6=
EXTT7=
EXTT8=
EXTT9=
EXTT10=
EXTT11=
PLAYORDER=
